<?xml version="1.0" encoding="UTF-8"?>
<svg width="508px" height="508px" viewBox="0 0 508 508" version="1.1" xmlns="http://www.w3.org/2000/svg" xmlns:xlink="http://www.w3.org/1999/xlink">
    <!-- Generator: Sketch 3.8.3 (29802) - http://www.bohemiancoding.com/sketch -->
    <title>512</title>
    <desc>Created with Sketch.</desc>
    <defs></defs>
    <g id="Page-1" stroke="none" stroke-width="1" fill="none" fill-rule="evenodd">
        <g id="512" fill="#8C001A">
            <path d="M254,508 C394.280326,508 508,394.280326 508,254 C508,113.719674 394.280326,0 254,0 C113.719674,0 0,113.719674 0,254 C0,394.280326 113.719674,508 254,508 Z M254.5,485 C381.801635,485 485,381.801635 485,254.5 C485,127.198365 381.801635,24 254.5,24 C127.198365,24 24,127.198365 24,254.5 C24,381.801635 127.198365,485 254.5,485 Z" id="Oval-6"></path>
            <g id="Group" transform="translate(184.000000, 184.000000)">
                <g>
                    <path d="M113,140 C127.911688,140 140,127.911688 140,113 C140,98.0883118 127.911688,86 113,86 C98.0883118,86 86,98.0883118 86,113 C86,127.911688 98.0883118,140 113,140 Z M113,130 C122.388841,130 130,122.388841 130,113 C130,103.611159 122.388841,96 113,96 C103.611159,96 96,103.611159 96,113 C96,122.388841 103.611159,130 113,130 Z" id="Oval-3-Copy"></path>
                    <path d="M113,54 C127.911688,54 140,41.9116882 140,27 C140,12.0883118 127.911688,0 113,0 C98.0883118,0 86,12.0883118 86,27 C86,41.9116882 98.0883118,54 113,54 Z M113,44 C122.388841,44 130,36.3888407 130,27 C130,17.6111593 122.388841,10 113,10 C103.611159,10 96,17.6111593 96,27 C96,36.3888407 103.611159,44 113,44 Z" id="Oval-3-Copy-3"></path>
                    <path d="M27,140 C41.9116882,140 54,127.911688 54,113 C54,98.0883118 41.9116882,86 27,86 C12.0883118,86 0,98.0883118 0,113 C0,127.911688 12.0883118,140 27,140 Z M27,130 C36.3888407,130 44,122.388841 44,113 C44,103.611159 36.3888407,96 27,96 C17.6111593,96 10,103.611159 10,113 C10,122.388841 17.6111593,130 27,130 Z" id="Oval-3-Copy-4"></path>
                    <path d="M27,54 C41.9116882,54 54,41.9116882 54,27 C54,12.0883118 41.9116882,0 27,0 C12.0883118,0 0,12.0883118 0,27 C0,41.9116882 12.0883118,54 27,54 Z M27,44 C36.3888407,44 44,36.3888407 44,27 C44,17.6111593 36.3888407,10 27,10 C17.6111593,10 10,17.6111593 10,27 C10,36.3888407 17.6111593,44 27,44 Z" id="Oval-3-Copy-5"></path>
                    <ellipse id="Oval-11" cx="27" cy="27" rx="22" ry="21"></ellipse>
                    <ellipse id="Oval-11-Copy" cx="113" cy="27" rx="22" ry="21"></ellipse>
                    <ellipse id="Oval-11-Copy-2" cx="27" cy="113" rx="22" ry="21"></ellipse>
                    <ellipse id="Oval-11-Copy-3" cx="113" cy="113" rx="22" ry="21"></ellipse>
                </g>
            </g>
        </g>
    </g>
</svg>